<svg xmlns="http://www.w3.org/2000/svg" width="900" height="430" viewBox="0 0 900 430" role="img"
  aria-label="itsahmeds activity. 25 contributions in the last year, 15 this week, current streak 1 days, longest 1 days. Regenerated 2026-09-14 12:23 utc.">
  <rect x="0.5" y="0.5" width="899" height="429" rx="10" fill="#0A0E0C" stroke="#1C2A20"/>
  <g font-family="JetBrains Mono, Cascadia Code, Fira Code, Menlo, Consolas, monospace">
    <g fill="#5CF27A" shape-rendering="crispEdges"><rect x="36" y="34" width="10" height="11"/><rect x="51" y="34" width="40" height="11"/><rect x="96" y="34" width="35" height="11"/><rect x="141" y="34" width="25" height="11"/><rect x="176" y="34" width="10" height="11"/><rect x="201" y="34" width="10" height="11"/><rect x="216" y="34" width="15" height="11"/><rect x="251" y="34" width="15" height="11"/><rect x="271" y="34" width="35" height="11"/><rect x="311" y="34" width="30" height="11"/><rect x="351" y="34" width="35" height="11"/><rect x="36" y="45" width="10" height="11"/><rect x="66" y="45" width="10" height="11"/><rect x="96" y="45" width="10" height="11"/><rect x="136" y="45" width="10" height="11"/><rect x="161" y="45" width="10" height="11"/><rect x="176" y="45" width="10" height="11"/><rect x="201" y="45" width="10" height="11"/><rect x="216" y="45" width="20" height="11"/><rect x="246" y="45" width="20" height="11"/><rect x="271" y="45" width="10" height="11"/><rect x="311" y="45" width="10" height="11"/><rect x="336" y="45" width="10" height="11"/><rect x="351" y="45" width="10" height="11"/><rect x="36" y="56" width="10" height="11"/><rect x="66" y="56" width="10" height="11"/><rect x="96" y="56" width="35" height="11"/><rect x="136" y="56" width="35" height="11"/><rect x="176" y="56" width="35" height="11"/><rect x="216" y="56" width="10" height="11"/><rect x="231" y="56" width="20" height="11"/><rect x="256" y="56" width="10" height="11"/><rect x="271" y="56" width="25" height="11"/><rect x="311" y="56" width="10" height="11"/><rect x="336" y="56" width="10" height="11"/><rect x="351" y="56" width="35" height="11"/><rect x="36" y="67" width="10" height="11"/><rect x="66" y="67" width="10" height="11"/><rect x="121" y="67" width="10" height="11"/><rect x="136" y="67" width="10" height="11"/><rect x="161" y="67" width="10" height="11"/><rect x="176" y="67" width="10" height="11"/><rect x="201" y="67" width="10" height="11"/><rect x="216" y="67" width="10" height="11"/><rect x="236" y="67" width="10" height="11"/><rect x="256" y="67" width="10" height="11"/><rect x="271" y="67" width="10" height="11"/><rect x="311" y="67" width="10" height="11"/><rect x="336" y="67" width="10" height="11"/><rect x="376" y="67" width="10" height="11"/><rect x="36" y="78" width="10" height="11"/><rect x="66" y="78" width="10" height="11"/><rect x="96" y="78" width="35" height="11"/><rect x="136" y="78" width="10" height="11"/><rect x="161" y="78" width="10" height="11"/><rect x="176" y="78" width="10" height="11"/><rect x="201" y="78" width="10" height="11"/><rect x="216" y="78" width="10" height="11"/><rect x="256" y="78" width="10" height="11"/><rect x="271" y="78" width="35" height="11"/><rect x="311" y="78" width="30" height="11"/><rect x="351" y="78" width="35" height="11"/></g>
    <text x="864" y="46" text-anchor="end" fill="#4E7A5A" font-size="11">activity · regenerated 2026-09-14 12:23 utc</text>
    <text x="864" y="62" text-anchor="end" fill="#4E7A5A" font-size="11">refreshes every 6h · private work counted, not shown</text>

    <text x="36" y="118" fill="#4E7A5A" font-size="11">contributions per week · last 52 weeks</text>
    <line x1="36" y1="250.5" x2="864" y2="250.5" stroke="#1C2A20"/>
    <rect x="36" y="248" width="12" height="2" rx="1.5" fill="#5CF27A" fill-opacity="0.22"/><rect x="52" y="248" width="12" height="2" rx="1.5" fill="#5CF27A" fill-opacity="0.22"/><rect x="68" y="248" width="12" height="2" rx="1.5" fill="#5CF27A" fill-opacity="0.22"/><rect x="84" y="248" width="12" height="2" rx="1.5" fill="#5CF27A" fill-opacity="0.22"/><rect x="100" y="248" width="12" height="2" rx="1.5" fill="#5CF27A" fill-opacity="0.22"/><rect x="116" y="248" width="12" height="2" rx="1.5" fill="#5CF27A" fill-opacity="0.22"/><rect x="132" y="248" width="12" height="2" rx="1.5" fill="#5CF27A" fill-opacity="0.22"/><rect x="148" y="248" width="12" height="2" rx="1.5" fill="#5CF27A" fill-opacity="0.22"/><rect x="164" y="248" width="12" height="2" rx="1.5" fill="#5CF27A" fill-opacity="0.22"/><rect x="180" y="248" width="12" height="2" rx="1.5" fill="#5CF27A" fill-opacity="0.22"/><rect x="196" y="248" width="12" height="2" rx="1.5" fill="#5CF27A" fill-opacity="0.22"/><rect x="212" y="248" width="12" height="2" rx="1.5" fill="#5CF27A" fill-opacity="0.22"/><rect x="228" y="248" width="12" height="2" rx="1.5" fill="#5CF27A" fill-opacity="0.22"/><rect x="244" y="248" width="12" height="2" rx="1.5" fill="#5CF27A" fill-opacity="0.22"/><rect x="260" y="248" width="12" height="2" rx="1.5" fill="#5CF27A" fill-opacity="0.22"/><rect x="276" y="248" width="12" height="2" rx="1.5" fill="#5CF27A" fill-opacity="0.22"/><rect x="292" y="248" width="12" height="2" rx="1.5" fill="#5CF27A" fill-opacity="0.22"/><rect x="308" y="248" width="12" height="2" rx="1.5" fill="#5CF27A" fill-opacity="0.22"/><rect x="324" y="248" width="12" height="2" rx="1.5" fill="#5CF27A" fill-opacity="0.22"/><rect x="340" y="248" width="12" height="2" rx="1.5" fill="#5CF27A" fill-opacity="0.22"/><rect x="356" y="248" width="12" height="2" rx="1.5" fill="#5CF27A" fill-opacity="0.22"/><rect x="372" y="248" width="12" height="2" rx="1.5" fill="#5CF27A" fill-opacity="0.22"/><rect x="388" y="248" width="12" height="2" rx="1.5" fill="#5CF27A" fill-opacity="0.22"/><rect x="404" y="248" width="12" height="2" rx="1.5" fill="#5CF27A" fill-opacity="0.22"/><rect x="420" y="248" width="12" height="2" rx="1.5" fill="#5CF27A" fill-opacity="0.22"/><rect x="436" y="248" width="12" height="2" rx="1.5" fill="#5CF27A" fill-opacity="0.22"/><rect x="452" y="248" width="12" height="2" rx="1.5" fill="#5CF27A" fill-opacity="0.22"/><rect x="468" y="248" width="12" height="2" rx="1.5" fill="#5CF27A" fill-opacity="0.22"/><rect x="484" y="248" width="12" height="2" rx="1.5" fill="#5CF27A" fill-opacity="0.22"/><rect x="500" y="248" width="12" height="2" rx="1.5" fill="#5CF27A" fill-opacity="0.22"/><rect x="516" y="234" width="12" height="16" rx="1.5" fill="#5CF27A" fill-opacity="0.52"/><rect x="532" y="242" width="12" height="8" rx="1.5" fill="#5CF27A" fill-opacity="0.49"/><rect x="548" y="248" width="12" height="2" rx="1.5" fill="#5CF27A" fill-opacity="0.22"/><rect x="564" y="234" width="12" height="16" rx="1.5" fill="#5CF27A" fill-opacity="0.52"/><rect x="580" y="248" width="12" height="2" rx="1.5" fill="#5CF27A" fill-opacity="0.22"/><rect x="596" y="248" width="12" height="2" rx="1.5" fill="#5CF27A" fill-opacity="0.22"/><rect x="612" y="248" width="12" height="2" rx="1.5" fill="#5CF27A" fill-opacity="0.22"/><rect x="628" y="234" width="12" height="16" rx="1.5" fill="#5CF27A" fill-opacity="0.52"/><rect x="644" y="248" width="12" height="2" rx="1.5" fill="#5CF27A" fill-opacity="0.22"/><rect x="660" y="248" width="12" height="2" rx="1.5" fill="#5CF27A" fill-opacity="0.22"/><rect x="676" y="234" width="12" height="16" rx="1.5" fill="#5CF27A" fill-opacity="0.52"/><rect x="692" y="248" width="12" height="2" rx="1.5" fill="#5CF27A" fill-opacity="0.22"/><rect x="708" y="248" width="12" height="2" rx="1.5" fill="#5CF27A" fill-opacity="0.22"/><rect x="724" y="248" width="12" height="2" rx="1.5" fill="#5CF27A" fill-opacity="0.22"/><rect x="740" y="248" width="12" height="2" rx="1.5" fill="#5CF27A" fill-opacity="0.22"/><rect x="756" y="248" width="12" height="2" rx="1.5" fill="#5CF27A" fill-opacity="0.22"/><rect x="772" y="248" width="12" height="2" rx="1.5" fill="#5CF27A" fill-opacity="0.22"/><rect x="788" y="248" width="12" height="2" rx="1.5" fill="#5CF27A" fill-opacity="0.22"/><rect x="804" y="248" width="12" height="2" rx="1.5" fill="#5CF27A" fill-opacity="0.22"/><rect x="820" y="248" width="12" height="2" rx="1.5" fill="#5CF27A" fill-opacity="0.22"/><rect x="836" y="248" width="12" height="2" rx="1.5" fill="#5CF27A" fill-opacity="0.22"/><rect x="852" y="130" width="12" height="120" rx="1.5" fill="#5CF27A" fill-opacity="1.00"/>
    <text x="68" y="268" fill="#4E7A5A" font-size="10">oct</text><text x="132" y="268" fill="#4E7A5A" font-size="10">nov</text><text x="212" y="268" fill="#4E7A5A" font-size="10">dec</text><text x="276" y="268" fill="#4E7A5A" font-size="10">jan</text><text x="340" y="268" fill="#4E7A5A" font-size="10">feb</text><text x="404" y="268" fill="#4E7A5A" font-size="10">mar</text><text x="484" y="268" fill="#4E7A5A" font-size="10">apr</text><text x="548" y="268" fill="#4E7A5A" font-size="10">may</text><text x="628" y="268" fill="#4E7A5A" font-size="10">jun</text><text x="692" y="268" fill="#4E7A5A" font-size="10">jul</text><text x="756" y="268" fill="#4E7A5A" font-size="10">aug</text><text x="836" y="268" fill="#4E7A5A" font-size="10">sep</text>

    <text x="36" y="300" fill="#E9F5EC" font-size="26" font-weight="700">25</text><text x="36" y="318" fill="#4E7A5A" font-size="11">last 365 days</text>
    <text x="226" y="300" fill="#E9F5EC" font-size="26" font-weight="700">15</text><text x="226" y="318" fill="#4E7A5A" font-size="11">last 30 days</text>
    <text x="416" y="300" fill="#E9F5EC" font-size="26" font-weight="700">1</text><text x="416" y="318" fill="#4E7A5A" font-size="11">current streak, days</text>
    <text x="606" y="300" fill="#E9F5EC" font-size="26" font-weight="700">1</text><text x="606" y="318" fill="#4E7A5A" font-size="11">longest streak, days</text>
    <text x="796" y="300" fill="#E9F5EC" font-size="26" font-weight="700">mon</text><text x="796" y="318" fill="#4E7A5A" font-size="11">busiest day</text>

    <rect x="36" y="330" width="16" height="16" rx="3" fill="#5CF27A" fill-opacity="0.15"/><rect x="58" y="330" width="16" height="16" rx="3" fill="#5CF27A" fill-opacity="0.9"/>
    <text x="198" y="343" fill="#4E7A5A" font-size="11">this week, sun to sat · 15 so far · active 7 of 366 days</text>

    <text x="36" y="408" fill="#4E7A5A" font-size="11">source: github contributions api · built by .github/workflows/activity.yml</text>
    <text x="864" y="408" text-anchor="end" fill="#4E7A5A" font-size="11">github.com/itsahmeds</text>
  </g>
</svg>
